<svg width="176" height="46" viewBox="0 0 176 46" fill="none" xmlns="http://www.w3.org/2000/svg">
<path d="M91.079 32.9048H92.4598V36.5139H93.0209V32.9048H94.4016V32.4158H91.081V32.9048H91.079ZM76.3521 27.8028V10.0479H74.1959L68.4125 24.859L62.7053 10.0479H60.4228V27.8028H61.1322V11.9256L67.2442 27.8028H68.0057L74.1939 12.0017V27.8028H76.3501H76.3521ZM79.7147 27.8028H89.1252V27.0934H81.8709V18.2681H87.8307V17.5587H81.8709V10.7573H89.1252V10.0479H79.7147V27.8028ZM76.7709 32.4178L75.2279 36.5139H75.797L76.2399 35.2875H77.8591L78.2739 36.5139H78.8811L77.3942 32.4178H76.7669H76.7709ZM76.4002 34.8346L77.0615 33.025L77.6827 34.8346H76.4002ZM86.1474 34.534C86.0011 34.4238 85.7947 34.3376 85.5261 34.2755L84.969 34.1452C84.5943 34.0551 84.3538 33.9809 84.2476 33.9228C84.0853 33.8306 84.0051 33.6823 84.0051 33.4819C84.0051 33.2996 84.0733 33.1393 84.2116 33.003C84.3478 32.8647 84.5743 32.7966 84.8889 32.7966C85.2776 32.7966 85.5522 32.9028 85.7145 33.1172C85.8027 33.2334 85.8588 33.4018 85.8848 33.6222H86.4059C86.4059 33.1673 86.2596 32.8347 85.967 32.6283C85.6744 32.4219 85.3197 32.3176 84.9029 32.3176C84.448 32.3176 84.0973 32.4359 83.8508 32.6723C83.6023 32.9088 83.4781 33.2114 83.4781 33.5781C83.4781 33.9188 83.6044 34.1733 83.8568 34.3456C84.0031 34.4438 84.2516 34.534 84.6023 34.6162L85.1394 34.7424C85.4319 34.8105 85.6464 34.8927 85.7826 34.9849C85.9169 35.0791 85.985 35.2394 85.985 35.4618C85.985 35.7584 85.8247 35.9648 85.5061 36.081C85.3418 36.1412 85.1594 36.1712 84.959 36.1712C84.5121 36.1712 84.1995 36.0349 84.0212 35.7644C83.927 35.6201 83.8749 35.4298 83.8629 35.1993H83.3418C83.3358 35.6422 83.4741 35.9929 83.7547 36.2514C84.0352 36.5119 84.424 36.6421 84.9209 36.6421C85.3478 36.6421 85.7205 36.5439 86.0431 36.3496C86.3658 36.1552 86.5261 35.8305 86.5261 35.3757C86.5261 35.0109 86.3998 34.7344 86.1474 34.542V34.534ZM20.4143 8.14017L20.0455 7.24842H13.8394L13.0718 8.51891L23.6145 34.3777C24.9311 37.5559 27.7166 38.8525 30.2396 38.7803L30.7866 38.7403L19.0937 10.116C18.7029 9.1742 19.3963 8.13816 20.4143 8.13816V8.14017ZM50.818 40.8444H51.2288V5H50.818V40.8444ZM33.5741 8.02193H33.9268L33.6062 7.25042H31.5221C29.446 7.25042 28.0412 9.36457 28.8448 11.2783L34.9248 26.1235C36.0249 28.7787 38.3876 30.5101 41.2612 30.5101L32.6443 9.41267C32.3697 8.74936 32.8567 8.02193 33.5741 8.02193ZM62.2564 32.4178H60.4228V36.5139H60.9779V34.7825H62.2564C62.6672 34.7825 62.9698 34.6643 63.1702 34.4278C63.3706 34.1913 63.4688 33.9128 63.4688 33.5921C63.4688 33.2194 63.3566 32.9309 63.1342 32.7264C62.9117 32.522 62.6191 32.4178 62.2564 32.4178ZM62.6773 34.1533C62.523 34.2595 62.3226 34.3116 62.0761 34.3116H60.9799V32.8928H62.0761C62.2885 32.8928 62.4548 32.9208 62.5771 32.9789C62.7995 33.0872 62.9097 33.2916 62.9097 33.5921C62.9097 33.8607 62.8336 34.047 62.6793 34.1533H62.6773ZM8.74936 19.7009C8.3646 18.7771 8.3666 17.727 8.88162 16.8673L8.54295 16.0196L6.73941 19.0275L5.44887 21.1497C4.90581 22.0435 4.86773 23.0975 5.26852 24.0634L8.36861 31.6664C8.64315 32.3297 8.15619 33.0571 7.43878 33.0571L7.79749 33.9228H9.30244C11.8194 33.9228 13.5247 31.3638 12.5588 29.0412L8.74735 19.7009H8.74936ZM68.8474 32.4178H68.2923V36.5139H70.9014V36.0249H68.8474V32.4158V32.4178ZM169.168 34.3857L167.99 32.4178H167.343L168.892 34.8626V36.5139H169.447V34.8626L170.998 32.4178H170.345L169.166 34.3857H169.168ZM140.911 14.4345C140.354 13.2843 139.658 12.3845 138.831 11.7332C138.001 11.0819 137.119 10.6391 136.18 10.4026C135.242 10.1661 134.392 10.0479 133.631 10.0479C132.869 10.0479 132.023 10.1661 131.094 10.4026C130.164 10.6391 129.284 11.0839 128.456 11.7332C127.627 12.3845 126.935 13.2843 126.376 14.4345C125.819 15.5848 125.539 17.0817 125.539 18.9233C125.539 20.765 125.817 22.2639 126.376 23.4122C126.933 24.5624 127.627 25.4622 128.456 26.1135C129.284 26.7647 130.164 27.2076 131.094 27.4441C132.023 27.6805 132.869 27.7988 133.631 27.7988C134.392 27.7988 135.242 27.6805 136.18 27.4441C137.117 27.2076 138.001 26.7627 138.831 26.1135C139.658 25.4622 140.352 24.5624 140.911 23.4122C141.468 22.2619 141.749 20.767 141.749 18.9233C141.749 17.0797 141.47 15.5848 140.911 14.4345ZM138.983 22.8551C138.594 23.9031 138.103 24.7448 137.512 25.378C136.921 26.0113 136.282 26.4601 135.598 26.7227C134.913 26.9852 134.268 27.1154 133.659 27.1154C133.049 27.1154 132.398 26.9852 131.707 26.7227C131.013 26.4601 130.37 26.0133 129.779 25.378C129.188 24.7448 128.697 23.9031 128.308 22.8551C127.919 21.807 127.717 20.4964 127.699 18.9233C127.715 17.3503 127.919 16.0417 128.308 14.9916C128.697 13.9436 129.188 13.1019 129.779 12.4687C130.37 11.8354 131.013 11.3865 131.707 11.124C132.4 10.8615 133.051 10.7313 133.659 10.7313C134.266 10.7313 134.915 10.8615 135.598 11.124C136.284 11.3865 136.921 11.8334 137.512 12.4687C138.103 13.1019 138.594 13.9436 138.983 14.9916C139.372 16.0397 139.574 17.3503 139.592 18.9233C139.576 20.4964 139.372 21.807 138.983 22.8551ZM152.197 34.6362H154.445V34.1613H152.197V32.9168H154.628V32.4138H151.656V36.5099H154.67V36.0209H152.197V34.6322V34.6362ZM144.781 34.7825H146.063C146.057 35.2614 145.935 35.6101 145.698 35.8245C145.46 36.039 145.161 36.1472 144.799 36.1472C144.326 36.1472 143.983 35.9949 143.775 35.6883C143.564 35.3817 143.46 34.9869 143.46 34.4999C143.46 33.9368 143.586 33.512 143.841 33.2274C144.095 32.9429 144.408 32.8006 144.779 32.8006C145.091 32.8006 145.352 32.8687 145.556 33.005C145.762 33.1413 145.897 33.3597 145.963 33.6583H146.512C146.422 33.1232 146.177 32.7485 145.774 32.5341C145.498 32.3858 145.169 32.3116 144.791 32.3116C144.237 32.3116 143.787 32.504 143.438 32.8908C143.071 33.2956 142.889 33.8406 142.889 34.528C142.889 35.2153 143.077 35.7564 143.452 36.1512C143.797 36.4658 144.205 36.6221 144.684 36.6221C145.053 36.6221 145.358 36.554 145.598 36.4157C145.74 36.3355 145.905 36.1933 146.089 35.9869L146.223 36.5139H146.58V34.3216H144.781V34.7825ZM141.552 10.0479V10.7573H151.874L141.35 27.8008H154.742V27.0914H144.42L154.944 10.0479H141.552ZM162.758 36.1712C162.738 36.0951 162.724 35.9788 162.718 35.8225L162.698 35.2735C162.688 35.035 162.644 34.8626 162.563 34.7584C162.483 34.6522 162.361 34.5661 162.203 34.5019C162.385 34.4078 162.527 34.2815 162.628 34.1252C162.73 33.9689 162.78 33.7685 162.78 33.522C162.78 33.0511 162.591 32.7285 162.213 32.5541C162.014 32.4639 161.762 32.4178 161.455 32.4178H159.594V36.5139H160.149V34.7564H161.375C161.596 34.7564 161.758 34.7805 161.86 34.8326C162.04 34.9228 162.137 35.1031 162.151 35.3716L162.185 36.055C162.193 36.2153 162.201 36.3235 162.213 36.3776C162.225 36.4317 162.239 36.4798 162.257 36.5139H162.938V36.4217C162.852 36.3836 162.794 36.3015 162.76 36.1712H162.758ZM161.994 34.1372C161.846 34.2414 161.648 34.2935 161.393 34.2935H160.147V32.8928H161.465C161.65 32.8928 161.798 32.9208 161.908 32.9769C162.115 33.0832 162.217 33.2815 162.217 33.5741C162.217 33.8446 162.143 34.033 161.996 34.1372H161.994ZM171 27.8028L164.557 10.0479H162.275L155.756 27.8028H156.518L158.369 22.7308H166.866L168.691 27.8028H171ZM158.648 22.0194L162.656 11.114L166.611 22.0194H158.648ZM121.302 34.534C121.156 34.4238 120.95 34.3376 120.681 34.2755L120.124 34.1452C119.749 34.0551 119.509 33.9809 119.403 33.9228C119.24 33.8306 119.16 33.6823 119.16 33.4819C119.16 33.2996 119.228 33.1393 119.367 33.003C119.503 32.8647 119.729 32.7966 120.044 32.7966C120.433 32.7966 120.707 32.9028 120.87 33.1172C120.958 33.2334 121.014 33.4018 121.04 33.6222H121.561C121.561 33.1673 121.415 32.8347 121.122 32.6283C120.829 32.4219 120.475 32.3176 120.058 32.3176C119.603 32.3176 119.252 32.4359 119.006 32.6723C118.757 32.9088 118.633 33.2114 118.633 33.5781C118.633 33.9188 118.759 34.1733 119.012 34.3456C119.158 34.4438 119.407 34.534 119.757 34.6162L120.294 34.7424C120.587 34.8105 120.801 34.8927 120.938 34.9849C121.072 35.0791 121.14 35.2394 121.14 35.4618C121.14 35.7584 120.98 35.9648 120.661 36.081C120.497 36.1412 120.314 36.1712 120.114 36.1712C119.667 36.1712 119.355 36.0349 119.176 35.7644C119.082 35.6201 119.03 35.4298 119.018 35.1993H118.497C118.491 35.6422 118.629 35.9929 118.91 36.2514C119.19 36.5119 119.579 36.6421 120.076 36.6421C120.503 36.6421 120.876 36.5439 121.198 36.3496C121.521 36.1552 121.681 35.8305 121.681 35.3757C121.681 35.0109 121.555 34.7344 121.302 34.542V34.534ZM107.339 35.6622C107.129 35.9768 106.824 36.1331 106.421 36.1331C105.984 36.1331 105.656 35.9828 105.437 35.6843C105.217 35.3857 105.107 34.9969 105.107 34.516C105.107 33.9308 105.229 33.496 105.471 33.2114C105.716 32.9268 106.034 32.7866 106.431 32.7866C106.756 32.7866 107.008 32.8647 107.189 33.017C107.369 33.1713 107.489 33.3797 107.549 33.6443H108.09C108.058 33.2976 107.902 32.987 107.62 32.7124C107.337 32.4399 106.938 32.3016 106.427 32.3016C105.826 32.3016 105.355 32.512 105.012 32.9329C104.696 33.3196 104.537 33.8166 104.537 34.4198C104.537 35.2153 104.748 35.8045 105.169 36.1852C105.487 36.4738 105.884 36.6181 106.353 36.6181C106.898 36.6181 107.333 36.4417 107.654 36.0911C107.922 35.7985 108.08 35.4378 108.129 35.0069H107.587C107.533 35.2775 107.449 35.4939 107.339 35.6602V35.6622ZM99.1489 36.5139H99.71V32.4178H99.1489V36.5139ZM105.81 10.0479H105.022V26.4822L95.131 10.0479H92.4898V27.8028H93.2774V11.3665L103.169 27.8008H105.81V10.0479ZM121.681 12.8755C121.014 12.0378 120.138 11.3585 119.056 10.8335C117.974 10.3104 116.647 10.0479 115.074 10.0479H109.165V27.8028H115.074C116.647 27.8028 117.974 27.5403 119.056 27.0172C120.138 26.4942 121.014 25.8089 121.681 24.9632C122.348 24.1175 122.825 23.1677 123.114 22.1096C123.401 21.0535 123.545 19.9914 123.545 18.9274C123.545 17.8633 123.401 16.7751 123.114 15.7191C122.825 14.663 122.348 13.7151 121.681 12.8775V12.8755ZM120.743 23.0074C120.328 24.0735 119.821 24.9091 119.222 25.5183C118.621 26.1275 117.98 26.5463 117.295 26.7748C116.609 27.0032 115.996 27.1174 115.455 27.1174H111.321V10.7333H115.455C115.996 10.7333 116.609 10.8475 117.295 11.0759C117.98 11.3044 118.621 11.7232 119.222 12.3324C119.821 12.9416 120.33 13.7772 120.743 14.8433C121.158 15.9094 121.373 17.2701 121.391 18.9274C121.373 20.5846 121.158 21.9453 120.743 23.0114V23.0074ZM129.294 34.9488C129.294 35.2454 129.248 35.4799 129.156 35.6542C128.985 35.9768 128.663 36.1371 128.188 36.1371C127.793 36.1371 127.511 35.9889 127.344 35.6903C127.232 35.4939 127.176 35.2454 127.176 34.9488V32.4158H126.615V34.7164C126.615 35.2193 126.683 35.6081 126.819 35.8786C127.068 36.3736 127.539 36.6201 128.232 36.6201C128.925 36.6201 129.398 36.3736 129.649 35.8786C129.785 35.6081 129.853 35.2193 129.853 34.7164V32.4158H129.292V34.9488H129.294ZM138.045 36.1712C138.025 36.0951 138.011 35.9788 138.005 35.8225L137.985 35.2735C137.975 35.035 137.931 34.8626 137.851 34.7584C137.771 34.6522 137.648 34.5661 137.49 34.5019C137.673 34.4078 137.815 34.2815 137.915 34.1252C138.017 33.9689 138.067 33.7685 138.067 33.522C138.067 33.0511 137.879 32.7285 137.5 32.5541C137.302 32.4639 137.049 32.4178 136.743 32.4178H134.881V36.5139H135.436V34.7564H136.663C136.883 34.7564 137.045 34.7805 137.148 34.8326C137.328 34.9228 137.424 35.1031 137.438 35.3716L137.472 36.055C137.48 36.2153 137.488 36.3235 137.5 36.3776C137.512 36.4317 137.526 36.4798 137.544 36.5139H138.226V36.4217C138.139 36.3836 138.081 36.3015 138.047 36.1712H138.045ZM137.284 34.1372C137.135 34.2414 136.937 34.2935 136.683 34.2935H135.436V32.8928H136.755C136.939 32.8928 137.087 32.9208 137.198 32.9769C137.404 33.0832 137.506 33.2815 137.506 33.5741C137.506 33.8446 137.432 34.033 137.286 34.1372H137.284Z" fill="white"/>
</svg>
