<svg width="68" height="16" viewBox="0 0 68 16" fill="none" xmlns="http://www.w3.org/2000/svg">
<path d="M14.6666 8.00004C14.6666 4.32004 11.6799 1.33337 7.99992 1.33337C4.31992 1.33337 1.33325 4.32004 1.33325 8.00004C1.33325 11.2267 3.62659 13.9134 6.66658 14.5334V10H5.33325V8.00004H6.66658V6.33337C6.66658 5.04671 7.71325 4.00004 8.99992 4.00004H10.6666V6.00004H9.33325C8.96658 6.00004 8.66658 6.30004 8.66658 6.66671V8.00004H10.6666V10H8.66658V14.6334C12.0333 14.3 14.6666 11.46 14.6666 8.00004Z" fill="white"/>
<path d="M40.9733 3.99996C40.4599 4.23329 39.9066 4.38663 39.3333 4.45996C39.9199 4.10663 40.3733 3.54663 40.5866 2.87329C40.0333 3.20663 39.4199 3.43996 38.7733 3.57329C38.2466 2.99996 37.5066 2.66663 36.6666 2.66663C35.0999 2.66663 33.8199 3.94663 33.8199 5.52663C33.8199 5.75329 33.8466 5.97329 33.8933 6.17996C31.5199 6.05996 29.4066 4.91996 27.9999 3.19329C27.7533 3.61329 27.6133 4.10663 27.6133 4.62663C27.6133 5.61996 28.1133 6.49996 28.8866 6.99996C28.4133 6.99996 27.9733 6.86663 27.5866 6.66663V6.68663C27.5866 8.07329 28.5733 9.23329 29.8799 9.49329C29.4604 9.6081 29.02 9.62407 28.5933 9.53996C28.7743 10.1083 29.129 10.6056 29.6073 10.9619C30.0856 11.3183 30.6636 11.5158 31.2599 11.5266C30.249 12.3269 28.9959 12.7595 27.7066 12.7533C27.4799 12.7533 27.2533 12.74 27.0266 12.7133C28.2933 13.5266 29.7999 14 31.4133 14C36.6666 14 39.5533 9.63996 39.5533 5.85996C39.5533 5.73329 39.5533 5.61329 39.5466 5.48663C40.1066 5.08663 40.5866 4.57996 40.9733 3.99996Z" fill="white"/>
<path d="M58.0266 14.36C58.6666 14.5534 59.3133 14.6667 59.9999 14.6667C61.768 14.6667 63.4637 13.9643 64.714 12.7141C65.9642 11.4638 66.6666 9.76815 66.6666 8.00004C66.6666 7.12456 66.4941 6.25765 66.1591 5.44882C65.8241 4.63998 65.333 3.90505 64.714 3.286C64.0949 2.66694 63.36 2.17588 62.5511 1.84084C61.7423 1.50581 60.8754 1.33337 59.9999 1.33337C59.1244 1.33337 58.2575 1.50581 57.4487 1.84084C56.6399 2.17588 55.9049 2.66694 55.2859 3.286C54.0356 4.53624 53.3333 6.23193 53.3333 8.00004C53.3333 10.8334 55.1133 13.2667 57.6266 14.2267C57.5666 13.7067 57.5066 12.8467 57.6266 12.2534L58.3933 8.96004C58.3933 8.96004 58.1999 8.57337 58.1999 7.96004C58.1999 7.04004 58.7733 6.35337 59.4266 6.35337C59.9999 6.35337 60.2666 6.77337 60.2666 7.31337C60.2666 7.88671 59.8866 8.70671 59.6933 9.49337C59.5799 10.1467 60.0399 10.72 60.7066 10.72C61.8933 10.72 62.8133 9.45337 62.8133 7.66671C62.8133 6.06671 61.6666 4.97337 60.0199 4.97337C58.1399 4.97337 57.0333 6.37337 57.0333 7.84671C57.0333 8.42004 57.2199 9.00004 57.5266 9.38004C57.5866 9.42004 57.5866 9.47337 57.5666 9.57337L57.3733 10.3C57.3733 10.4134 57.2999 10.4534 57.1866 10.3734C56.3333 10 55.8399 8.78671 55.8399 7.80671C55.8399 5.70004 57.3333 3.78671 60.2133 3.78671C62.5066 3.78671 64.2933 5.43337 64.2933 7.62004C64.2933 9.91337 62.8733 11.7534 60.8399 11.7534C60.1933 11.7534 59.5599 11.4067 59.3333 11L58.8866 12.58C58.7333 13.1534 58.3133 13.92 58.0266 14.38V14.36Z" fill="white"/>
</svg>
